<mxfile host="app.diagrams.net" agent="Mozilla/5.0 (Windows NT 10.0; Win64; x64) AppleWebKit/537.36 (KHTML, like Gecko) Chrome/136.0.0.0 Safari/537.36" version="27.0.8">
  <diagram id="47PnX0TUvRTDlCMDijG3" name="Page-1">
    <mxGraphModel dx="1097" dy="640" grid="1" gridSize="10" guides="1" tooltips="1" connect="1" arrows="1" fold="1" page="1" pageScale="1" pageWidth="850" pageHeight="1100" math="0" shadow="0" adaptiveColors="none">
      <root>
        <mxCell id="0" />
        <mxCell id="1" parent="0" />
        <mxCell id="i01k1KnaPqbeD2vrzGO2-1" value="Start" style="rounded=1;whiteSpace=wrap;arcSize=50;strokeWidth=2;sketch=1;hachureGap=4;jiggle=2;curveFitting=1;fontFamily=Architects Daughter;fontSource=https%3A%2F%2Ffonts.googleapis.com%2Fcss%3Ffamily%3DArchitects%2BDaughter;fillColor=#FF66B3;fillStyle=solid;" vertex="1" parent="1">
          <mxGeometry x="390" y="28" width="59" height="39" as="geometry" />
        </mxCell>
        <mxCell id="i01k1KnaPqbeD2vrzGO2-2" value="Parent: Create Ride Offer" style="whiteSpace=wrap;strokeWidth=2;sketch=1;hachureGap=4;jiggle=2;curveFitting=1;fontFamily=Architects Daughter;fontSource=https%3A%2F%2Ffonts.googleapis.com%2Fcss%3Ffamily%3DArchitects%2BDaughter;fillStyle=solid;fillColor=#CCCCFF;" vertex="1" parent="1">
          <mxGeometry x="298" y="124" width="241" height="54" as="geometry" />
        </mxCell>
        <mxCell id="i01k1KnaPqbeD2vrzGO2-3" value="System: Validate Offer" style="whiteSpace=wrap;strokeWidth=2;sketch=1;hachureGap=4;jiggle=2;curveFitting=1;fontFamily=Architects Daughter;fontSource=https%3A%2F%2Ffonts.googleapis.com%2Fcss%3Ffamily%3DArchitects%2BDaughter;fillStyle=solid;fillColor=#97D077;" vertex="1" parent="1">
          <mxGeometry x="211" y="228" width="219" height="54" as="geometry" />
        </mxCell>
        <mxCell id="i01k1KnaPqbeD2vrzGO2-4" value="Add to Active Offers Pool" style="whiteSpace=wrap;strokeWidth=2;sketch=1;hachureGap=4;jiggle=2;curveFitting=1;fontFamily=Architects Daughter;fontSource=https%3A%2F%2Ffonts.googleapis.com%2Fcss%3Ffamily%3DArchitects%2BDaughter;fillStyle=solid;fillColor=#CCCCFF;" vertex="1" parent="1">
          <mxGeometry x="179" y="354" width="238" height="54" as="geometry" />
        </mxCell>
        <mxCell id="i01k1KnaPqbeD2vrzGO2-5" value="Background Thread: Scan Offers" style="whiteSpace=wrap;strokeWidth=2;sketch=1;hachureGap=4;jiggle=2;curveFitting=1;fontFamily=Architects Daughter;fontSource=https%3A%2F%2Ffonts.googleapis.com%2Fcss%3Ffamily%3DArchitects%2BDaughter;fillStyle=solid;fillColor=#CCFFCC;" vertex="1" parent="1">
          <mxGeometry x="168" y="479" width="260" height="78" as="geometry" />
        </mxCell>
        <mxCell id="i01k1KnaPqbeD2vrzGO2-6" value="Driver Available?" style="rhombus;strokeWidth=2;whiteSpace=wrap;sketch=1;hachureGap=4;jiggle=2;curveFitting=1;fontFamily=Architects Daughter;fontSource=https%3A%2F%2Ffonts.googleapis.com%2Fcss%3Ffamily%3DArchitects%2BDaughter;fillStyle=solid;fillColor=#CC6600;" vertex="1" parent="1">
          <mxGeometry x="98" y="607" width="174" height="174" as="geometry" />
        </mxCell>
        <mxCell id="i01k1KnaPqbeD2vrzGO2-7" value="Driver: Receive Notification" style="whiteSpace=wrap;strokeWidth=2;sketch=1;hachureGap=4;jiggle=2;curveFitting=1;fontFamily=Architects Daughter;fontSource=https%3A%2F%2Ffonts.googleapis.com%2Fcss%3Ffamily%3DArchitects%2BDaughter;fillColor=#CCCCFF;fillStyle=solid;" vertex="1" parent="1">
          <mxGeometry x="34" y="853" width="253" height="54" as="geometry" />
        </mxCell>
        <mxCell id="i01k1KnaPqbeD2vrzGO2-8" value="Driver: Book Ride" style="whiteSpace=wrap;strokeWidth=2;sketch=1;hachureGap=4;jiggle=2;curveFitting=1;fontFamily=Architects Daughter;fontSource=https%3A%2F%2Ffonts.googleapis.com%2Fcss%3Ffamily%3DArchitects%2BDaughter;fillStyle=solid;fillColor=#CCCCFF;" vertex="1" parent="1">
          <mxGeometry x="68" y="957" width="185" height="54" as="geometry" />
        </mxCell>
        <mxCell id="i01k1KnaPqbeD2vrzGO2-9" value="System: Create Booking" style="whiteSpace=wrap;strokeWidth=2;sketch=1;hachureGap=4;jiggle=2;curveFitting=1;fontFamily=Architects Daughter;fontSource=https%3A%2F%2Ffonts.googleapis.com%2Fcss%3Ffamily%3DArchitects%2BDaughter;fillStyle=solid;fillColor=#97D077;" vertex="1" parent="1">
          <mxGeometry x="20" y="1082" width="233" height="54" as="geometry" />
        </mxCell>
        <mxCell id="i01k1KnaPqbeD2vrzGO2-10" value="Track Ride Completion" style="whiteSpace=wrap;strokeWidth=2;sketch=1;hachureGap=4;jiggle=2;curveFitting=1;fontFamily=Architects Daughter;fontSource=https%3A%2F%2Ffonts.googleapis.com%2Fcss%3Ffamily%3DArchitects%2BDaughter;fillStyle=solid;fillColor=#CCCCFF;" vertex="1" parent="1">
          <mxGeometry x="25" y="1186" width="222" height="54" as="geometry" />
        </mxCell>
        <mxCell id="i01k1KnaPqbeD2vrzGO2-11" value="Parent: Rate Driver" style="whiteSpace=wrap;strokeWidth=2;sketch=1;hachureGap=4;jiggle=2;curveFitting=1;fontFamily=Architects Daughter;fontSource=https%3A%2F%2Ffonts.googleapis.com%2Fcss%3Ffamily%3DArchitects%2BDaughter;fillStyle=solid;fillColor=#CCCCFF;" vertex="1" parent="1">
          <mxGeometry x="222" y="1520" width="197" height="54" as="geometry" />
        </mxCell>
        <mxCell id="i01k1KnaPqbeD2vrzGO2-12" value="End" style="rounded=1;whiteSpace=wrap;arcSize=50;strokeWidth=2;sketch=1;hachureGap=4;jiggle=2;curveFitting=1;fontFamily=Architects Daughter;fontSource=https%3A%2F%2Ffonts.googleapis.com%2Fcss%3Ffamily%3DArchitects%2BDaughter;fillStyle=solid;fillColor=#FF66B3;" vertex="1" parent="1">
          <mxGeometry x="425" y="1640" width="53" height="39" as="geometry" />
        </mxCell>
        <mxCell id="i01k1KnaPqbeD2vrzGO2-13" value="Recheck Pool in 5s" style="whiteSpace=wrap;strokeWidth=2;sketch=1;hachureGap=4;jiggle=2;curveFitting=1;fontFamily=Architects Daughter;fontSource=https%3A%2F%2Ffonts.googleapis.com%2Fcss%3Ffamily%3DArchitects%2BDaughter;fillStyle=solid;fillColor=#B266FF;" vertex="1" parent="1">
          <mxGeometry x="337" y="853" width="197" height="54" as="geometry" />
        </mxCell>
        <mxCell id="i01k1KnaPqbeD2vrzGO2-14" value="Reject Offer" style="whiteSpace=wrap;strokeWidth=2;sketch=1;hachureGap=4;jiggle=2;curveFitting=1;fontFamily=Architects Daughter;fontSource=https%3A%2F%2Ffonts.googleapis.com%2Fcss%3Ffamily%3DArchitects%2BDaughter;fillStyle=solid;fillColor=#B266FF;" vertex="1" parent="1">
          <mxGeometry x="467" y="354" width="145" height="54" as="geometry" />
        </mxCell>
        <mxCell id="i01k1KnaPqbeD2vrzGO2-15" value="Retry Booking" style="whiteSpace=wrap;strokeWidth=2;sketch=1;hachureGap=4;jiggle=2;curveFitting=1;fontFamily=Architects Daughter;fontSource=https%3A%2F%2Ffonts.googleapis.com%2Fcss%3Ffamily%3DArchitects%2BDaughter;fillStyle=solid;fillColor=#B266FF;" vertex="1" parent="1">
          <mxGeometry x="303" y="1082" width="161" height="54" as="geometry" />
        </mxCell>
        <mxCell id="i01k1KnaPqbeD2vrzGO2-20" value="" style="curved=1;startArrow=none;endArrow=block;exitX=0.49;exitY=0.99;entryX=0.5;entryY=0;rounded=0;sketch=1;hachureGap=4;jiggle=2;curveFitting=1;fontFamily=Architects Daughter;fontSource=https%3A%2F%2Ffonts.googleapis.com%2Fcss%3Ffamily%3DArchitects%2BDaughter;" edge="1" parent="1" source="i01k1KnaPqbeD2vrzGO2-1" target="i01k1KnaPqbeD2vrzGO2-2">
          <mxGeometry relative="1" as="geometry">
            <Array as="points" />
          </mxGeometry>
        </mxCell>
        <mxCell id="i01k1KnaPqbeD2vrzGO2-21" value="" style="curved=1;startArrow=none;endArrow=block;exitX=0.29;exitY=1;entryX=0.5;entryY=0;rounded=0;sketch=1;hachureGap=4;jiggle=2;curveFitting=1;fontFamily=Architects Daughter;fontSource=https%3A%2F%2Ffonts.googleapis.com%2Fcss%3Ffamily%3DArchitects%2BDaughter;" edge="1" parent="1" source="i01k1KnaPqbeD2vrzGO2-2" target="i01k1KnaPqbeD2vrzGO2-3">
          <mxGeometry relative="1" as="geometry">
            <Array as="points">
              <mxPoint x="321" y="203" />
            </Array>
          </mxGeometry>
        </mxCell>
        <mxCell id="i01k1KnaPqbeD2vrzGO2-22" value="" style="curved=1;startArrow=none;endArrow=block;exitX=0.46;exitY=1;entryX=0.5;entryY=-0.01;rounded=0;sketch=1;hachureGap=4;jiggle=2;curveFitting=1;fontFamily=Architects Daughter;fontSource=https%3A%2F%2Ffonts.googleapis.com%2Fcss%3Ffamily%3DArchitects%2BDaughter;" edge="1" parent="1" source="i01k1KnaPqbeD2vrzGO2-3" target="i01k1KnaPqbeD2vrzGO2-4">
          <mxGeometry relative="1" as="geometry">
            <Array as="points">
              <mxPoint x="298" y="318" />
            </Array>
          </mxGeometry>
        </mxCell>
        <mxCell id="i01k1KnaPqbeD2vrzGO2-23" value="Will Trigger" style="curved=1;dashed=1;dashPattern=2 3;startArrow=none;endArrow=block;exitX=0.5;exitY=0.99;entryX=0.5;entryY=0;rounded=0;sketch=1;hachureGap=4;jiggle=2;curveFitting=1;fontFamily=Architects Daughter;fontSource=https%3A%2F%2Ffonts.googleapis.com%2Fcss%3Ffamily%3DArchitects%2BDaughter;" edge="1" parent="1" source="i01k1KnaPqbeD2vrzGO2-4" target="i01k1KnaPqbeD2vrzGO2-5">
          <mxGeometry relative="1" as="geometry">
            <Array as="points" />
          </mxGeometry>
        </mxCell>
        <mxCell id="i01k1KnaPqbeD2vrzGO2-24" value="" style="curved=1;startArrow=none;endArrow=block;exitX=0.23;exitY=1;entryX=0.5;entryY=0;rounded=0;sketch=1;hachureGap=4;jiggle=2;curveFitting=1;fontFamily=Architects Daughter;fontSource=https%3A%2F%2Ffonts.googleapis.com%2Fcss%3Ffamily%3DArchitects%2BDaughter;" edge="1" parent="1" source="i01k1KnaPqbeD2vrzGO2-5" target="i01k1KnaPqbeD2vrzGO2-6">
          <mxGeometry relative="1" as="geometry">
            <Array as="points">
              <mxPoint x="185" y="582" />
            </Array>
          </mxGeometry>
        </mxCell>
        <mxCell id="i01k1KnaPqbeD2vrzGO2-25" value="Yes" style="curved=1;startArrow=none;endArrow=block;exitX=0.4;exitY=1;entryX=0.5;entryY=-0.01;rounded=0;sketch=1;hachureGap=4;jiggle=2;curveFitting=1;fontFamily=Architects Daughter;fontSource=https%3A%2F%2Ffonts.googleapis.com%2Fcss%3Ffamily%3DArchitects%2BDaughter;" edge="1" parent="1" source="i01k1KnaPqbeD2vrzGO2-6" target="i01k1KnaPqbeD2vrzGO2-7">
          <mxGeometry relative="1" as="geometry">
            <Array as="points">
              <mxPoint x="161" y="817" />
            </Array>
          </mxGeometry>
        </mxCell>
        <mxCell id="i01k1KnaPqbeD2vrzGO2-26" value="" style="curved=1;startArrow=none;endArrow=block;exitX=0.5;exitY=0.99;entryX=0.5;entryY=-0.01;rounded=0;sketch=1;hachureGap=4;jiggle=2;curveFitting=1;fontFamily=Architects Daughter;fontSource=https%3A%2F%2Ffonts.googleapis.com%2Fcss%3Ffamily%3DArchitects%2BDaughter;" edge="1" parent="1" source="i01k1KnaPqbeD2vrzGO2-7" target="i01k1KnaPqbeD2vrzGO2-8">
          <mxGeometry relative="1" as="geometry">
            <Array as="points" />
          </mxGeometry>
        </mxCell>
        <mxCell id="i01k1KnaPqbeD2vrzGO2-27" value="" style="curved=1;startArrow=none;endArrow=block;exitX=0.44;exitY=0.99;entryX=0.5;entryY=0;rounded=0;sketch=1;hachureGap=4;jiggle=2;curveFitting=1;fontFamily=Architects Daughter;fontSource=https%3A%2F%2Ffonts.googleapis.com%2Fcss%3Ffamily%3DArchitects%2BDaughter;" edge="1" parent="1" source="i01k1KnaPqbeD2vrzGO2-8" target="i01k1KnaPqbeD2vrzGO2-9">
          <mxGeometry relative="1" as="geometry">
            <Array as="points">
              <mxPoint x="136" y="1046" />
            </Array>
          </mxGeometry>
        </mxCell>
        <mxCell id="i01k1KnaPqbeD2vrzGO2-28" value="" style="curved=1;startArrow=none;endArrow=block;exitX=0.5;exitY=1;entryX=0.5;entryY=0;rounded=0;sketch=1;hachureGap=4;jiggle=2;curveFitting=1;fontFamily=Architects Daughter;fontSource=https%3A%2F%2Ffonts.googleapis.com%2Fcss%3Ffamily%3DArchitects%2BDaughter;" edge="1" parent="1" source="i01k1KnaPqbeD2vrzGO2-9" target="i01k1KnaPqbeD2vrzGO2-10">
          <mxGeometry relative="1" as="geometry">
            <Array as="points" />
          </mxGeometry>
        </mxCell>
        <mxCell id="i01k1KnaPqbeD2vrzGO2-29" value="" style="curved=1;startArrow=none;endArrow=block;exitX=0.5;exitY=1;rounded=0;sketch=1;hachureGap=4;jiggle=2;curveFitting=1;fontFamily=Architects Daughter;fontSource=https%3A%2F%2Ffonts.googleapis.com%2Fcss%3Ffamily%3DArchitects%2BDaughter;" edge="1" parent="1" source="i01k1KnaPqbeD2vrzGO2-10" target="i01k1KnaPqbeD2vrzGO2-37">
          <mxGeometry relative="1" as="geometry">
            <Array as="points" />
            <mxPoint x="133" y="1280" as="targetPoint" />
          </mxGeometry>
        </mxCell>
        <mxCell id="i01k1KnaPqbeD2vrzGO2-30" value="" style="curved=1;startArrow=none;endArrow=block;exitX=0.5;exitY=1;entryX=0.5;entryY=0;rounded=0;sketch=1;hachureGap=4;jiggle=2;curveFitting=1;fontFamily=Architects Daughter;fontSource=https%3A%2F%2Ffonts.googleapis.com%2Fcss%3Ffamily%3DArchitects%2BDaughter;" edge="1" parent="1" source="i01k1KnaPqbeD2vrzGO2-11" target="i01k1KnaPqbeD2vrzGO2-12">
          <mxGeometry relative="1" as="geometry">
            <Array as="points" />
          </mxGeometry>
        </mxCell>
        <mxCell id="i01k1KnaPqbeD2vrzGO2-31" value="No" style="curved=1;startArrow=none;endArrow=block;exitX=1;exitY=0.95;entryX=0.25;entryY=-0.01;rounded=0;sketch=1;hachureGap=4;jiggle=2;curveFitting=1;fontFamily=Architects Daughter;fontSource=https%3A%2F%2Ffonts.googleapis.com%2Fcss%3Ffamily%3DArchitects%2BDaughter;" edge="1" parent="1" source="i01k1KnaPqbeD2vrzGO2-6" target="i01k1KnaPqbeD2vrzGO2-13">
          <mxGeometry relative="1" as="geometry">
            <Array as="points">
              <mxPoint x="322" y="817" />
            </Array>
          </mxGeometry>
        </mxCell>
        <mxCell id="i01k1KnaPqbeD2vrzGO2-32" value="" style="curved=1;startArrow=none;endArrow=block;exitX=0.54;exitY=-0.01;entryX=0.86;entryY=1;rounded=0;sketch=1;hachureGap=4;jiggle=2;curveFitting=1;fontFamily=Architects Daughter;fontSource=https%3A%2F%2Ffonts.googleapis.com%2Fcss%3Ffamily%3DArchitects%2BDaughter;" edge="1" parent="1" source="i01k1KnaPqbeD2vrzGO2-13" target="i01k1KnaPqbeD2vrzGO2-5">
          <mxGeometry relative="1" as="geometry">
            <Array as="points">
              <mxPoint x="452" y="817" />
              <mxPoint x="452" y="582" />
            </Array>
          </mxGeometry>
        </mxCell>
        <mxCell id="i01k1KnaPqbeD2vrzGO2-33" value="Invalid" style="curved=1;startArrow=none;endArrow=block;exitX=0.74;exitY=1;entryX=0.21;entryY=-0.01;rounded=0;sketch=1;hachureGap=4;jiggle=2;curveFitting=1;fontFamily=Architects Daughter;fontSource=https%3A%2F%2Ffonts.googleapis.com%2Fcss%3Ffamily%3DArchitects%2BDaughter;" edge="1" parent="1" source="i01k1KnaPqbeD2vrzGO2-3" target="i01k1KnaPqbeD2vrzGO2-14">
          <mxGeometry relative="1" as="geometry">
            <Array as="points">
              <mxPoint x="441" y="318" />
            </Array>
          </mxGeometry>
        </mxCell>
        <mxCell id="i01k1KnaPqbeD2vrzGO2-34" value="" style="curved=1;startArrow=none;endArrow=block;exitX=0.57;exitY=-0.01;entryX=0.81;entryY=1;rounded=0;sketch=1;hachureGap=4;jiggle=2;curveFitting=1;fontFamily=Architects Daughter;fontSource=https%3A%2F%2Ffonts.googleapis.com%2Fcss%3Ffamily%3DArchitects%2BDaughter;" edge="1" parent="1" source="i01k1KnaPqbeD2vrzGO2-14" target="i01k1KnaPqbeD2vrzGO2-2">
          <mxGeometry relative="1" as="geometry">
            <Array as="points">
              <mxPoint x="562" y="318" />
              <mxPoint x="562" y="203" />
            </Array>
          </mxGeometry>
        </mxCell>
        <mxCell id="i01k1KnaPqbeD2vrzGO2-35" value="Issue" style="curved=1;startArrow=none;endArrow=block;exitX=0.79;exitY=0.99;entryX=0.23;entryY=0;rounded=0;sketch=1;hachureGap=4;jiggle=2;curveFitting=1;fontFamily=Architects Daughter;fontSource=https%3A%2F%2Ffonts.googleapis.com%2Fcss%3Ffamily%3DArchitects%2BDaughter;" edge="1" parent="1" source="i01k1KnaPqbeD2vrzGO2-8" target="i01k1KnaPqbeD2vrzGO2-15">
          <mxGeometry relative="1" as="geometry">
            <Array as="points" />
          </mxGeometry>
        </mxCell>
        <mxCell id="i01k1KnaPqbeD2vrzGO2-36" value="" style="curved=1;startArrow=none;endArrow=block;exitX=0.56;exitY=0;entryX=1;entryY=0.93;rounded=0;sketch=1;hachureGap=4;jiggle=2;curveFitting=1;fontFamily=Architects Daughter;fontSource=https%3A%2F%2Ffonts.googleapis.com%2Fcss%3Ffamily%3DArchitects%2BDaughter;" edge="1" parent="1" source="i01k1KnaPqbeD2vrzGO2-15" target="i01k1KnaPqbeD2vrzGO2-8">
          <mxGeometry relative="1" as="geometry">
            <Array as="points">
              <mxPoint x="407" y="1046" />
            </Array>
          </mxGeometry>
        </mxCell>
        <mxCell id="i01k1KnaPqbeD2vrzGO2-41" style="edgeStyle=orthogonalEdgeStyle;rounded=0;sketch=1;hachureGap=4;jiggle=2;curveFitting=1;orthogonalLoop=1;jettySize=auto;html=1;exitX=1;exitY=0.5;exitDx=0;exitDy=0;entryX=0.75;entryY=0;entryDx=0;entryDy=0;fontFamily=Architects Daughter;fontSource=https%3A%2F%2Ffonts.googleapis.com%2Fcss%3Ffamily%3DArchitects%2BDaughter;" edge="1" parent="1">
          <mxGeometry relative="1" as="geometry">
            <mxPoint x="428" y="1367" as="sourcePoint" />
            <mxPoint x="462.75" y="1640" as="targetPoint" />
            <Array as="points">
              <mxPoint x="428" y="1400" />
              <mxPoint x="460" y="1400" />
              <mxPoint x="460" y="1640" />
            </Array>
          </mxGeometry>
        </mxCell>
        <mxCell id="i01k1KnaPqbeD2vrzGO2-42" value="No" style="edgeLabel;html=1;align=center;verticalAlign=middle;resizable=0;points=[];sketch=1;hachureGap=4;jiggle=2;curveFitting=1;fontFamily=Architects Daughter;fontSource=https%3A%2F%2Ffonts.googleapis.com%2Fcss%3Ffamily%3DArchitects%2BDaughter;" vertex="1" connectable="0" parent="i01k1KnaPqbeD2vrzGO2-41">
          <mxGeometry x="-0.0305" y="-1" relative="1" as="geometry">
            <mxPoint as="offset" />
          </mxGeometry>
        </mxCell>
        <mxCell id="i01k1KnaPqbeD2vrzGO2-37" value="Want To Give Review?" style="rhombus;strokeWidth=2;whiteSpace=wrap;sketch=1;hachureGap=4;jiggle=2;curveFitting=1;fontFamily=Architects Daughter;fontSource=https%3A%2F%2Ffonts.googleapis.com%2Fcss%3Ffamily%3DArchitects%2BDaughter;fillStyle=solid;fillColor=#CC6600;" vertex="1" parent="1">
          <mxGeometry x="256" y="1280" width="174" height="174" as="geometry" />
        </mxCell>
        <mxCell id="i01k1KnaPqbeD2vrzGO2-38" style="edgeStyle=orthogonalEdgeStyle;rounded=0;sketch=1;hachureGap=4;jiggle=2;curveFitting=1;orthogonalLoop=1;jettySize=auto;html=1;exitX=0.5;exitY=1;exitDx=0;exitDy=0;entryX=0.601;entryY=-0.004;entryDx=0;entryDy=0;entryPerimeter=0;fontFamily=Architects Daughter;fontSource=https%3A%2F%2Ffonts.googleapis.com%2Fcss%3Ffamily%3DArchitects%2BDaughter;" edge="1" parent="1" source="i01k1KnaPqbeD2vrzGO2-37" target="i01k1KnaPqbeD2vrzGO2-11">
          <mxGeometry relative="1" as="geometry" />
        </mxCell>
        <mxCell id="i01k1KnaPqbeD2vrzGO2-39" value="Text" style="edgeLabel;html=1;align=center;verticalAlign=middle;resizable=0;points=[];sketch=1;hachureGap=4;jiggle=2;curveFitting=1;fontFamily=Architects Daughter;fontSource=https%3A%2F%2Ffonts.googleapis.com%2Fcss%3Ffamily%3DArchitects%2BDaughter;" vertex="1" connectable="0" parent="i01k1KnaPqbeD2vrzGO2-38">
          <mxGeometry x="0.1556" y="-1" relative="1" as="geometry">
            <mxPoint as="offset" />
          </mxGeometry>
        </mxCell>
        <mxCell id="i01k1KnaPqbeD2vrzGO2-40" value="Yes" style="edgeLabel;html=1;align=center;verticalAlign=middle;resizable=0;points=[];sketch=1;hachureGap=4;jiggle=2;curveFitting=1;fontFamily=Architects Daughter;fontSource=https%3A%2F%2Ffonts.googleapis.com%2Fcss%3Ffamily%3DArchitects%2BDaughter;" vertex="1" connectable="0" parent="i01k1KnaPqbeD2vrzGO2-38">
          <mxGeometry x="0.1231" y="-2" relative="1" as="geometry">
            <mxPoint as="offset" />
          </mxGeometry>
        </mxCell>
      </root>
    </mxGraphModel>
  </diagram>
</mxfile>
